PathFileType	4	(X/Y/Z)	D:\Share\Shared_Data\Ergonomics\Sit To Stand Pertubation\S0\Free STS.trc
DataRate	CameraRate	NumFrames	NumMarkers	Units	OrigDataRate	OrigDataStartFrame	OrigNumFrames	
100	100	6	18	m	100	2770	211
Frame#	Time	R_Toe			R_ASIS			R_Pelvis			V_Sacral			L_Pelvis			L_ASIS			Clavical			R_Acromium			L_Acromium			Sternum			Torso			R_Thigh_Med			R_Thigh_Lat			R_Thigh			R_Shank_Med			R_Shank_Lat			R_Shank			R_Heel			
		X1	Y1	Z1	X2	Y2	Z2	X3	Y3	Z3	X4	Y4	Z4	X5	Y5	Z5	X6	Y6	Z6	X7	Y7	Z7	X8	Y8	Z8	X9	Y9	Z9	X10	Y10	Z10	X11	Y11	Z11	X12	Y12	Z12	X13	Y13	Z13	X14	Y14	Z14	X15	Y15	Z15	X16	Y16	Z16	X17	Y17	Z17	X18	Y18	Z18	

2770	14.12	0.37507715	0.050541245	0.14549304	-0.033062984	0.73581067	0.15890628	-0.16141728	0.73019519	0.20483168	-0.28152826	0.7054212	-0.023168711	-0.1423008	0.72432532	-0.20487221	-0.018754745	0.73414105	-0.15873102	0.071738922	1.0923625	-0.0028615348	0.005092237	1.1666443	0.13921614	-0.0064855552	1.1722279	-0.15012256	0.082553207	0.99543146	-0.020311234	0.066573967	1.0455415	-0.12560494	0.30064328	0.49118683	0.090022339	0.27834662	0.50879932	0.22278619	0.21023254	0.64206274	0.13572885	0.25293631	0.10561211	0.11095544	0.19478041	0.090406563	0.19813292	0.24517226	0.31033383	0.22746791	0.15467166	0.048065392	0.14997899
2771	14.13	0.3750528	0.050546425	0.14555592	-0.032162445	0.7352157	0.15905766	-0.16027864	0.73079022	0.20485915	-0.28058466	0.7067406	-0.023182171	-0.14120987	0.72503583	-0.20489354	-0.017500143	0.73380914	-0.15877847	0.077759758	1.0901337	-0.0029259071	0.01214467	1.165225	0.13910191	0.00053149056	1.1709264	-0.15004651	0.087449219	0.99307086	-0.020336414	0.072046234	1.0434049	-0.12557049	0.30059076	0.49109805	0.090209946	0.27829321	0.50868512	0.22297179	0.21038881	0.64198413	0.13592349	0.2529048	0.10555626	0.11095503	0.19468193	0.090331337	0.19812497	0.24504361	0.3102428	0.22753932	0.15463976	0.047961025	0.14992166
2772	14.14	0.37503027	0.050547688	0.14561865	-0.03101194	0.73478809	0.15921654	-0.15904094	0.73143774	0.20488844	-0.27956119	0.70816022	-0.023192057	-0.14002185	0.72577539	-0.20490437	-0.016171282	0.73346027	-0.15881267	0.083941055	1.0878153	-0.0029895372	0.019391991	1.1637312	0.13898271	0.0077380114	1.1695449	-0.1499637	0.092475494	0.9906366	-0.020356113	0.077673691	1.0411952	-0.12552773	0.30056302	0.49099347	0.090387306	0.27827496	0.50856262	0.22314658	0.21059232	0.64191547	0.13612146	0.25287447	0.10548755	0.11094741	0.19457983	0.090249229	0.19810884	0.24493323	0.31013977	0.22760495	0.15460823	0.047843994	0.14985614
2773	14.15	0.37501038	0.050544968	0.14567918	-0.029637671	0.73452338	0.15937729	-0.15769838	0.73214612	0.20492134	-0.27845007	0.70968585	-0.023198675	-0.13872874	0.72654224	-0.20490477	-0.014768425	0.73309326	-0.15882698	0.090290649	1.0854094	-0.0030518768	0.026835573	1.1621628	0.13885689	0.015134838	1.1680836	-0.14987491	0.097626068	0.98813116	-0.020372128	0.083457199	1.0389136	-0.12547809	0.30056189	0.49087277	0.090551651	0.27829855	0.50843268	0.22330817	0.21085191	0.64186389	0.13632178	0.25284654	0.10540561	0.11092924	0.19448396	0.090156898	0.19807787	0.24484601	0.31002438	0.2276609	0.15457735	0.047714428	0.14978052
2774	14.16	0.37499451	0.050538418	0.14573567	-0.028093985	0.73439362	0.15953421	-0.15624495	0.73292389	0.20495992	-0.27724268	0.71132336	-0.023201748	-0.13732436	0.72733588	-0.20489731	-0.013288269	0.73270917	-0.15881573	0.09681427	1.0829208	-0.003113097	0.034474819	1.1605198	0.13872392	0.022722151	1.166543	-0.14978117	0.10289342	0.98555768	-0.020386272	0.089394531	1.0365624	-0.12542359	0.30058862	0.49073627	0.090700691	0.27837064	0.50829626	0.223455	0.21117622	0.64183734	0.13652423	0.25282225	0.10531049	0.11089754	0.19440295	0.090051773	0.19802792	0.24478596	0.309897	0.22770329	0.15454768	0.047573395	0.14969394
2775	14.17	0.37498483	0.050528538	0.14578676	-0.026430862	0.73437103	0.15968002	-0.15467462	0.7337785	0.20500656	-0.27592999	0.71307843	-0.023200094	-0.13580331	0.72815814	-0.20488545	-0.011720874	0.73231323	-0.15877567	0.10351181	1.0803547	-0.0031737735	0.042307377	1.1588029	0.13858473	0.030498524	1.1649236	-0.14968376	0.10827005	0.98291992	-0.020400326	0.095480721	1.0341437	-0.12536657	0.3006438	0.49058524	0.090832809	0.27849603	0.50815439	0.22358662	0.21157199	0.64184338	0.13672893	0.2528024	0.10520236	0.11085067	0.19434215	0.089933136	0.19795827	0.24475603	0.30975912	0.22772926	0.15452045	0.047423012	0.14959708
